<svg xmlns="http://www.w3.org/2000/svg" width="64" height="65" viewBox="0 0 64 65" fill="none">
  <path fill-rule="evenodd" clip-rule="evenodd" d="M31.9735 6.20557C17.2535 6.20557 5.3335 18.1522 5.3335 32.8722C5.3335 47.5922 17.2535 59.5389 31.9735 59.5389C46.7202 59.5389 58.6668 47.5922 58.6668 32.8722C58.6668 18.1522 46.7202 6.20557 31.9735 6.20557ZM34.6668 35.5389V19.5389H29.3335V35.5389H34.6668ZM34.6668 46.2056V40.8722H29.3335V46.2056H34.6668ZM10.6668 32.8722C10.6668 44.6589 20.2135 54.2056 32.0002 54.2056C43.7868 54.2056 53.3335 44.6589 53.3335 32.8722C53.3335 21.0856 43.7868 11.5389 32.0002 11.5389C20.2135 11.5389 10.6668 21.0856 10.6668 32.8722Z" fill="white"/>
</svg>  