
<svg width="26" height="22" viewBox="0 0 26 22" fill="none" xmlns="http://www.w3.org/2000/svg">
<g id="Group">
<g id="Group_2">
<path id="Vector" d="M8.97998 0H12.9442C13.05 0 13.1346 0.0846446 13.1346 0.19045V3.78079C13.1346 3.8866 13.05 3.97124 12.9442 3.97124H8.97998" fill="#E0E0E0"/>
<path id="Vector_2" d="M0.19045 0H10.0233V3.9783H0.19045C0.0846446 3.9783 0 3.89365 0 3.78785V0.19045C0 0.0846446 0.0846446 0 0.19045 0Z" fill="#E0E0E0"/>
</g>
<g id="Group_3">
<path id="Vector_3" d="M8.97998 17.1829H12.9442C13.05 17.1829 13.1346 17.2675 13.1346 17.3733V20.9637C13.1346 21.0695 13.05 21.1541 12.9442 21.1541H8.97998" fill="#E0E0E0"/>
<path id="Vector_4" d="M0.19045 17.1827H10.0233V21.161H0.19045C0.0846446 21.161 0 21.0764 0 20.9706V17.3802C0 17.2744 0.0846446 17.1827 0.19045 17.1827Z" fill="#E0E0E0"/>
</g>
<g id="Group_4">
<path id="Vector_5" d="M2.99826 8.58472L12.9087 8.59882C13.0145 8.59882 13.0992 8.68347 13.0992 8.78927V12.3796C13.0992 12.4854 13.0145 12.5771 12.9017 12.5701L2.99121 12.556" fill="#E0E0E0"/>
<path id="Vector_6" d="M0.19045 8.59863H4.89528V12.5769H0.19045C0.0846446 12.5769 0 12.4923 0 12.3865V8.79614C0 8.69033 0.0846446 8.59863 0.19045 8.59863Z" fill="#E0E0E0"/>
</g>
<path id="Vector_7" opacity="0.5" d="M25.8035 0H21.4513C21.3808 0 21.3173 0.0352686 21.2891 0.098752L13.3748 20.9213C13.3043 21.0483 13.396 21.1682 13.5441 21.1611H17.7763C17.8469 21.1611 17.9103 21.1118 17.9386 21.0483L25.9798 0.296256C26.0503 0.169289 25.9586 0 25.8035 0Z" fill="#E0E0E0"/>
</g>
</svg>
